<svg width="60" height="60" viewBox="0 0 60 60" fill="none" xmlns="http://www.w3.org/2000/svg">
<circle cx="30" cy="30" r="30" fill="#1958F7"/>
<path d="M30 16.6667C31.3185 16.6667 32.6074 17.0577 33.7038 17.7902C34.8001 18.5228 35.6546 19.5639 36.1592 20.7821C36.6637 22.0003 36.7958 23.3407 36.5385 24.6339C36.2813 25.9271 35.6464 27.115 34.714 28.0474C33.7817 28.9797 32.5938 29.6147 31.3006 29.8719C30.0074 30.1291 28.6669 29.9971 27.4487 29.4925C26.2306 28.988 25.1894 28.1335 24.4568 27.0371C23.7243 25.9408 23.3333 24.6519 23.3333 23.3333L23.34 23.044C23.4145 21.3277 24.1488 19.7064 25.3896 18.5182C26.6304 17.3301 28.282 16.6668 30 16.6667ZM32.6666 32.6667C34.4347 32.6667 36.1304 33.369 37.3807 34.6193C38.6309 35.8695 39.3333 37.5652 39.3333 39.3333V40.6667C39.3333 41.3739 39.0523 42.0522 38.5522 42.5523C38.0521 43.0524 37.3739 43.3333 36.6666 43.3333H23.3333C22.626 43.3333 21.9478 43.0524 21.4477 42.5523C20.9476 42.0522 20.6666 41.3739 20.6666 40.6667V39.3333C20.6666 37.5652 21.369 35.8695 22.6192 34.6193C23.8695 33.369 25.5652 32.6667 27.3333 32.6667H32.6666Z" fill="white"/>
</svg>
